<mxfile host="app.diagrams.net" modified="2024-02-11T17:43:03.389Z" agent="Mozilla/5.0 (Windows NT 10.0; Win64; x64; rv:122.0) Gecko/20100101 Firefox/122.0" etag="pNyGlcUIQ_e3wz2wFYr0" version="23.1.2" type="device">
  <diagram name="Page-1" id="kVDhM8kyTFHLXFYWqaS-">
    <mxGraphModel dx="1495" dy="655" grid="1" gridSize="10" guides="1" tooltips="1" connect="1" arrows="1" fold="1" page="1" pageScale="1" pageWidth="850" pageHeight="1100" math="0" shadow="0">
      <root>
        <mxCell id="0" />
        <mxCell id="1" parent="0" />
        <mxCell id="ppLa-Lme_7yJwPYnsPHl-1" value="Timer loop" style="swimlane;whiteSpace=wrap;html=1;" vertex="1" parent="1">
          <mxGeometry x="340" y="100" width="390" height="290" as="geometry" />
        </mxCell>
        <mxCell id="ppLa-Lme_7yJwPYnsPHl-10" value="&lt;font style=&quot;font-size: 10px;&quot;&gt;CURRENT_MESSAGE&lt;/font&gt;" style="rounded=1;whiteSpace=wrap;html=1;" vertex="1" parent="ppLa-Lme_7yJwPYnsPHl-1">
          <mxGeometry x="25" y="60" width="120" height="40" as="geometry" />
        </mxCell>
        <mxCell id="ppLa-Lme_7yJwPYnsPHl-11" value="LED_RED" style="rounded=1;whiteSpace=wrap;html=1;" vertex="1" parent="ppLa-Lme_7yJwPYnsPHl-1">
          <mxGeometry x="250" y="60" width="110" height="40" as="geometry" />
        </mxCell>
        <mxCell id="ppLa-Lme_7yJwPYnsPHl-12" value="LED_OFF" style="rounded=1;whiteSpace=wrap;html=1;" vertex="1" parent="ppLa-Lme_7yJwPYnsPHl-1">
          <mxGeometry x="40" y="200" width="110" height="50" as="geometry" />
        </mxCell>
        <mxCell id="ppLa-Lme_7yJwPYnsPHl-13" value="LED_GREEN" style="rounded=1;whiteSpace=wrap;html=1;" vertex="1" parent="ppLa-Lme_7yJwPYnsPHl-1">
          <mxGeometry x="250" y="200" width="110" height="50" as="geometry" />
        </mxCell>
        <mxCell id="ppLa-Lme_7yJwPYnsPHl-16" value="" style="endArrow=classic;html=1;rounded=0;" edge="1" parent="ppLa-Lme_7yJwPYnsPHl-1">
          <mxGeometry width="50" height="50" relative="1" as="geometry">
            <mxPoint x="150" y="80" as="sourcePoint" />
            <mxPoint x="240" y="80" as="targetPoint" />
          </mxGeometry>
        </mxCell>
        <mxCell id="ppLa-Lme_7yJwPYnsPHl-17" value="" style="endArrow=classic;html=1;rounded=0;entryX=1;entryY=0.5;entryDx=0;entryDy=0;exitX=-0.055;exitY=0.56;exitDx=0;exitDy=0;exitPerimeter=0;" edge="1" parent="ppLa-Lme_7yJwPYnsPHl-1" source="ppLa-Lme_7yJwPYnsPHl-13" target="ppLa-Lme_7yJwPYnsPHl-12">
          <mxGeometry width="50" height="50" relative="1" as="geometry">
            <mxPoint x="170" y="270" as="sourcePoint" />
            <mxPoint x="220" y="220" as="targetPoint" />
          </mxGeometry>
        </mxCell>
        <mxCell id="ppLa-Lme_7yJwPYnsPHl-18" value="&lt;font style=&quot;font-size: 8px;&quot;&gt;if LED_STATE != green&lt;/font&gt;" style="edgeLabel;html=1;align=center;verticalAlign=middle;resizable=0;points=[];" vertex="1" connectable="0" parent="ppLa-Lme_7yJwPYnsPHl-17">
          <mxGeometry x="0.1487" relative="1" as="geometry">
            <mxPoint x="10" y="-16" as="offset" />
          </mxGeometry>
        </mxCell>
        <mxCell id="ppLa-Lme_7yJwPYnsPHl-19" value="" style="endArrow=classic;html=1;rounded=0;entryX=0.5;entryY=1;entryDx=0;entryDy=0;exitX=0.427;exitY=-0.1;exitDx=0;exitDy=0;exitPerimeter=0;" edge="1" parent="ppLa-Lme_7yJwPYnsPHl-1" source="ppLa-Lme_7yJwPYnsPHl-12" target="ppLa-Lme_7yJwPYnsPHl-10">
          <mxGeometry width="50" height="50" relative="1" as="geometry">
            <mxPoint x="85" y="180" as="sourcePoint" />
            <mxPoint x="135" y="130" as="targetPoint" />
          </mxGeometry>
        </mxCell>
        <mxCell id="ppLa-Lme_7yJwPYnsPHl-20" value="" style="endArrow=classic;html=1;rounded=0;entryX=0.5;entryY=0;entryDx=0;entryDy=0;exitX=0.5;exitY=1;exitDx=0;exitDy=0;" edge="1" parent="ppLa-Lme_7yJwPYnsPHl-1" source="ppLa-Lme_7yJwPYnsPHl-11" target="ppLa-Lme_7yJwPYnsPHl-13">
          <mxGeometry width="50" height="50" relative="1" as="geometry">
            <mxPoint x="270" y="180" as="sourcePoint" />
            <mxPoint x="320" y="130" as="targetPoint" />
          </mxGeometry>
        </mxCell>
        <mxCell id="ppLa-Lme_7yJwPYnsPHl-21" value="&lt;font style=&quot;font-size: 8px;&quot;&gt;if LED_STATE != red&lt;/font&gt;" style="edgeLabel;html=1;align=center;verticalAlign=middle;resizable=0;points=[];" vertex="1" connectable="0" parent="ppLa-Lme_7yJwPYnsPHl-20">
          <mxGeometry x="-0.14" relative="1" as="geometry">
            <mxPoint as="offset" />
          </mxGeometry>
        </mxCell>
        <mxCell id="ppLa-Lme_7yJwPYnsPHl-2" value="BUTTON_STATE" style="rounded=1;whiteSpace=wrap;html=1;" vertex="1" parent="1">
          <mxGeometry x="70" y="140" width="120" height="60" as="geometry" />
        </mxCell>
        <mxCell id="ppLa-Lme_7yJwPYnsPHl-3" value="BUTTON PRESS" style="rounded=1;whiteSpace=wrap;html=1;" vertex="1" parent="1">
          <mxGeometry x="70" y="300" width="120" height="60" as="geometry" />
        </mxCell>
        <mxCell id="ppLa-Lme_7yJwPYnsPHl-4" value="" style="endArrow=classic;html=1;rounded=0;entryX=0.367;entryY=1.083;entryDx=0;entryDy=0;entryPerimeter=0;exitX=0;exitY=0;exitDx=0;exitDy=0;" edge="1" parent="1" source="ppLa-Lme_7yJwPYnsPHl-3" target="ppLa-Lme_7yJwPYnsPHl-2">
          <mxGeometry width="50" height="50" relative="1" as="geometry">
            <mxPoint x="60" y="290" as="sourcePoint" />
            <mxPoint x="110" y="240" as="targetPoint" />
          </mxGeometry>
        </mxCell>
        <mxCell id="ppLa-Lme_7yJwPYnsPHl-5" value="OK" style="edgeLabel;html=1;align=center;verticalAlign=middle;resizable=0;points=[];" vertex="1" connectable="0" parent="ppLa-Lme_7yJwPYnsPHl-4">
          <mxGeometry x="0.1939" y="-4" relative="1" as="geometry">
            <mxPoint as="offset" />
          </mxGeometry>
        </mxCell>
        <mxCell id="ppLa-Lme_7yJwPYnsPHl-6" value="" style="endArrow=classic;html=1;rounded=0;entryX=0.633;entryY=1.167;entryDx=0;entryDy=0;entryPerimeter=0;exitX=1.075;exitY=0.1;exitDx=0;exitDy=0;exitPerimeter=0;" edge="1" parent="1" source="ppLa-Lme_7yJwPYnsPHl-3" target="ppLa-Lme_7yJwPYnsPHl-2">
          <mxGeometry width="50" height="50" relative="1" as="geometry">
            <mxPoint x="220" y="320" as="sourcePoint" />
            <mxPoint x="270" y="270" as="targetPoint" />
          </mxGeometry>
        </mxCell>
        <mxCell id="ppLa-Lme_7yJwPYnsPHl-7" value="SOS" style="edgeLabel;html=1;align=center;verticalAlign=middle;resizable=0;points=[];" vertex="1" connectable="0" parent="ppLa-Lme_7yJwPYnsPHl-6">
          <mxGeometry x="-0.0166" y="-6" relative="1" as="geometry">
            <mxPoint as="offset" />
          </mxGeometry>
        </mxCell>
        <mxCell id="ppLa-Lme_7yJwPYnsPHl-8" value="&lt;font style=&quot;font-size: 8px;&quot;&gt;if BUTTON_STATE ==SOS&lt;/font&gt;" style="text;html=1;strokeColor=none;fillColor=none;align=center;verticalAlign=middle;whiteSpace=wrap;rounded=0;" vertex="1" parent="1">
          <mxGeometry x="-30" y="280" width="110" height="30" as="geometry" />
        </mxCell>
        <mxCell id="ppLa-Lme_7yJwPYnsPHl-9" value="&lt;font style=&quot;font-size: 8px;&quot;&gt;if BUTTON_STATE == OK&lt;/font&gt;" style="text;html=1;strokeColor=none;fillColor=none;align=center;verticalAlign=middle;whiteSpace=wrap;rounded=0;" vertex="1" parent="1">
          <mxGeometry x="190" y="280" width="110" height="30" as="geometry" />
        </mxCell>
        <mxCell id="ppLa-Lme_7yJwPYnsPHl-14" value="" style="endArrow=classic;html=1;rounded=0;" edge="1" parent="1">
          <mxGeometry width="50" height="50" relative="1" as="geometry">
            <mxPoint x="360" y="180" as="sourcePoint" />
            <mxPoint x="200" y="170" as="targetPoint" />
          </mxGeometry>
        </mxCell>
        <mxCell id="ppLa-Lme_7yJwPYnsPHl-15" value="&lt;font style=&quot;font-size: 8px;&quot;&gt;CURRENT_MESSAGE == complete&lt;/font&gt;" style="edgeLabel;html=1;align=center;verticalAlign=middle;resizable=0;points=[];" vertex="1" connectable="0" parent="ppLa-Lme_7yJwPYnsPHl-14">
          <mxGeometry x="0.2988" y="1" relative="1" as="geometry">
            <mxPoint x="14" y="-15" as="offset" />
          </mxGeometry>
        </mxCell>
      </root>
    </mxGraphModel>
  </diagram>
</mxfile>
